<svg width="48" height="48" viewBox="0 0 48 48" xmlns="http://www.w3.org/2000/svg"><path d="M43.9898 13H35.6298C35.8498 12.38 35.9898 11.7 35.9898 11C35.9898 7.68 33.3098 5 29.9898 5C27.8898 5 26.0698 6.08 24.9898 7.7L23.9898 9.04L22.9898 7.68C21.9098 6.08 20.0898 5 17.9898 5C14.6698 5 11.9898 7.68 11.9898 11C11.9898 11.7 12.1298 12.38 12.3498 13H4.00977V43H43.9898V13ZM29.9898 9C31.0898 9 31.9898 9.9 31.9898 11C31.9898 12.1 31.0898 13 29.9898 13C28.8898 13 27.9898 12.1 27.9898 11C27.9898 9.9 28.8898 9 29.9898 9ZM17.9898 9C19.0898 9 19.9898 9.9 19.9898 11C19.9898 12.1 19.0898 13 17.9898 13C16.8898 13 15.9898 12.1 15.9898 11C15.9898 9.9 16.8898 9 17.9898 9ZM39.9898 39H7.98977V35H39.9898V39ZM39.9898 29H7.98977V17H18.1498L13.9898 22.66L17.2298 25L23.9898 15.8L30.7498 25L33.9898 22.66L29.8298 17H39.9898V29Z"/></svg>