<svg width="36" height="36" viewBox="0 0 36 36" fill="none" xmlns="http://www.w3.org/2000/svg">
<path d="M18.0055 1C10.9082 1 8.83251 1.00732 8.42903 1.0408C6.97253 1.16191 6.06621 1.39129 5.07883 1.88303C4.31789 2.26098 3.71777 2.6991 3.1255 3.31324C2.04686 4.43324 1.39313 5.81115 1.15649 7.44904C1.04143 8.24418 1.00796 8.40635 1.00116 12.4679C0.998547 13.8217 1.00116 15.6035 1.00116 17.9933C1.00116 25.0869 1.00901 27.161 1.043 27.5638C1.16067 28.9815 1.38294 29.8734 1.85362 30.849C2.75314 32.7166 4.47113 34.1185 6.49505 34.6417C7.19584 34.8221 7.96985 34.9215 8.96351 34.9686C9.38451 34.9869 13.6755 35 17.9692 35C22.2629 35 26.5565 34.9948 26.967 34.9738C28.1176 34.9197 28.7857 34.83 29.5244 34.639C31.5614 34.1133 33.248 32.7323 34.1658 30.8386C34.6274 29.8865 34.8614 28.9606 34.9673 27.6169C34.9903 27.324 35 22.6533 35 17.9889C35 13.3237 34.9895 8.66163 34.9665 8.36869C34.8593 7.00334 34.6253 6.08526 34.1489 5.11487C33.7579 4.32051 33.3239 3.72729 32.6937 3.12073C31.569 2.04624 30.1936 1.39234 28.5546 1.15589C27.7604 1.04107 27.6022 1.00706 23.5387 1H18.0055Z" fill="url(#paint0_radial_0_3)"/>
<path d="M18.0055 1C10.9082 1 8.83251 1.00732 8.42903 1.0408C6.97253 1.16191 6.06621 1.39129 5.07883 1.88303C4.31789 2.26098 3.71777 2.6991 3.1255 3.31324C2.04686 4.43324 1.39313 5.81115 1.15649 7.44904C1.04143 8.24418 1.00796 8.40635 1.00116 12.4679C0.998547 13.8217 1.00116 15.6035 1.00116 17.9933C1.00116 25.0869 1.00901 27.161 1.043 27.5638C1.16067 28.9815 1.38294 29.8734 1.85362 30.849C2.75314 32.7166 4.47113 34.1185 6.49505 34.6417C7.19584 34.8221 7.96985 34.9215 8.96351 34.9686C9.38451 34.9869 13.6755 35 17.9692 35C22.2629 35 26.5565 34.9948 26.967 34.9738C28.1176 34.9197 28.7857 34.83 29.5244 34.639C31.5614 34.1133 33.248 32.7323 34.1658 30.8386C34.6274 29.8865 34.8614 28.9606 34.9673 27.6169C34.9903 27.324 35 22.6533 35 17.9889C35 13.3237 34.9895 8.66163 34.9665 8.36869C34.8593 7.00334 34.6253 6.08526 34.1489 5.11487C33.7579 4.32051 33.3239 3.72729 32.6937 3.12073C31.569 2.04624 30.1936 1.39234 28.5546 1.15589C27.7604 1.04107 27.6022 1.00706 23.5387 1H18.0055Z" fill="url(#paint1_radial_0_3)"/>
<path d="M17.9977 5.44653C14.5889 5.44653 14.1611 5.46143 12.8223 5.52238C11.4861 5.58358 10.574 5.79519 9.77596 6.10566C8.95043 6.42633 8.25017 6.85529 7.55251 7.5534C6.85434 8.25124 6.42549 8.9517 6.10386 9.77718C5.79269 10.5757 5.58088 11.4883 5.52074 12.8244C5.46086 14.1636 5.44517 14.5917 5.44517 18.0014C5.44517 21.4111 5.46034 21.8377 5.521 23.1769C5.58245 24.5135 5.794 25.4258 6.10412 26.2241C6.42497 27.0499 6.85381 27.7503 7.55173 28.4482C8.24912 29.1465 8.94939 29.5765 9.77439 29.8972C10.573 30.2077 11.4853 30.4193 12.8213 30.4805C14.1601 30.5414 14.5876 30.5563 17.9961 30.5563C21.4052 30.5563 21.8317 30.5414 23.1705 30.4805C24.5067 30.4193 25.4198 30.2077 26.2184 29.8972C27.0437 29.5765 27.7429 29.1465 28.4403 28.4482C29.1385 27.7503 29.5673 27.0499 29.8889 26.2244C30.1975 25.4258 30.4093 24.5132 30.472 23.1772C30.5322 21.838 30.5479 21.4111 30.5479 18.0014C30.5479 14.5917 30.5322 14.1638 30.472 12.8246C30.4093 11.4881 30.1975 10.5757 29.8889 9.77745C29.5673 8.9517 29.1385 8.25124 28.4403 7.5534C27.7421 6.85503 27.0439 6.42607 26.2176 6.10566C25.4175 5.79519 24.5049 5.58358 23.1687 5.52238C21.8298 5.46143 21.4036 5.44653 17.9938 5.44653H17.9977ZM16.8717 7.70902C17.2059 7.7085 17.5788 7.70902 17.9977 7.70902C21.3489 7.70902 21.7462 7.72106 23.0695 7.78122C24.2933 7.83719 24.9575 8.04173 25.3999 8.21358C25.9857 8.44113 26.4033 8.71316 26.8423 9.15258C27.2816 9.592 27.5536 10.0105 27.7816 10.5964C27.9534 11.0384 28.1581 11.7028 28.2138 12.9269C28.274 14.2504 28.287 14.648 28.287 17.9986C28.287 21.3491 28.274 21.7467 28.2138 23.0702C28.1579 24.2943 27.9534 24.9587 27.7816 25.4007C27.5541 25.9866 27.2816 26.4038 26.8423 26.843C26.403 27.2824 25.9859 27.5544 25.3999 27.782C24.958 27.9546 24.2933 28.1586 23.0695 28.2146C21.7464 28.2747 21.3489 28.2878 17.9977 28.2878C14.6462 28.2878 14.249 28.2747 12.9259 28.2146C11.7021 28.1581 11.0379 27.9536 10.5952 27.7817C10.0095 27.5541 9.59108 27.2821 9.15178 26.8427C8.71248 26.4033 8.44053 25.9858 8.21251 25.3997C8.04071 24.9576 7.83597 24.2933 7.78027 23.0692C7.72013 21.7457 7.7081 21.3481 7.7081 17.9954C7.7081 14.6427 7.72013 14.2473 7.78027 12.9238C7.83623 11.6997 8.04071 11.0353 8.21251 10.5927C8.44001 10.0068 8.71248 9.58834 9.15178 9.14892C9.59108 8.70949 10.0095 8.43747 10.5952 8.20939C11.0376 8.03676 11.7021 7.83274 12.9259 7.77651C14.0837 7.7242 14.5324 7.7085 16.8717 7.70589V7.70902ZM24.6976 9.79366C23.866 9.79366 23.1914 10.4677 23.1914 11.2997C23.1914 12.1315 23.866 12.8063 24.6976 12.8063C25.5291 12.8063 26.2038 12.1315 26.2038 11.2997C26.2038 10.468 25.5291 9.79314 24.6976 9.79314V9.79366ZM17.9977 11.554C14.438 11.554 11.552 14.4408 11.552 18.0014C11.552 21.5621 14.438 24.4476 17.9977 24.4476C21.5574 24.4476 24.4424 21.5621 24.4424 18.0014C24.4424 14.4408 21.5571 11.554 17.9974 11.554H17.9977ZM17.9977 13.8165C20.3082 13.8165 22.1815 15.69 22.1815 18.0014C22.1815 20.3126 20.3082 22.1864 17.9977 22.1864C15.6869 22.1864 13.8139 20.3126 13.8139 18.0014C13.8139 15.69 15.6869 13.8165 17.9977 13.8165V13.8165Z" fill="white"/>
<defs>
<radialGradient id="paint0_radial_0_3" cx="0" cy="0" r="1" gradientUnits="userSpaceOnUse" gradientTransform="translate(10.0313 37.6187) rotate(-90) scale(33.6965 31.3404)">
<stop stop-color="#FFDD55"/>
<stop offset="0.1" stop-color="#FFDD55"/>
<stop offset="0.5" stop-color="#FF543E"/>
<stop offset="1" stop-color="#C837AB"/>
</radialGradient>
<radialGradient id="paint1_radial_0_3" cx="0" cy="0" r="1" gradientUnits="userSpaceOnUse" gradientTransform="translate(-4.69518 3.4493) rotate(78.6806) scale(15.0625 62.0882)">
<stop stop-color="#3771C8"/>
<stop offset="0.128" stop-color="#3771C8"/>
<stop offset="1" stop-color="#6600FF" stop-opacity="0"/>
</radialGradient>
</defs>
</svg>
