<svg width="1209" height="859" viewBox="0 0 1209 859" fill="none" xmlns="http://www.w3.org/2000/svg">
<path d="M836 12.5C836 19.4036 830.404 25 823.5 25C816.596 25 811 19.4036 811 12.5C811 5.59644 816.596 0 823.5 0C830.404 0 836 5.59644 836 12.5Z" fill="#CEE401"/>
<path fill-rule="evenodd" clip-rule="evenodd" d="M1137 8.5H830V7.5H1137V8.5Z" fill="#CEE401"/>
<path d="M827.65 9.83C827.65 10.64 827.435 11.345 827.005 11.945H827.02L823.63 17H822.055L824.545 13.325C824.325 13.345 824.155 13.355 824.035 13.355C822.975 13.355 822.105 13.03 821.425 12.38C820.755 11.72 820.42 10.87 820.42 9.83C820.42 8.79 820.755 7.945 821.425 7.295C822.105 6.635 822.975 6.305 824.035 6.305C825.095 6.305 825.96 6.635 826.63 7.295C827.31 7.945 827.65 8.79 827.65 9.83ZM822.415 8.24C822.005 8.64 821.8 9.17 821.8 9.83C821.8 10.49 822.005 11.025 822.415 11.435C822.835 11.835 823.375 12.035 824.035 12.035C824.695 12.035 825.23 11.835 825.64 11.435C826.06 11.025 826.27 10.49 826.27 9.83C826.27 9.17 826.065 8.64 825.655 8.24C825.245 7.84 824.705 7.64 824.035 7.64C823.375 7.64 822.835 7.84 822.415 8.24Z" fill="black"/>
<path d="M809 845.5C809 852.404 803.404 858 796.5 858C789.597 858 784 852.404 784 845.5C784 838.596 789.597 833 796.5 833C803.404 833 809 838.596 809 845.5Z" fill="#CEE401"/>
<path d="M799.12 844.57C799.63 844.83 800.03 845.18 800.32 845.62C800.61 846.06 800.755 846.56 800.755 847.12C800.755 848.08 800.42 848.835 799.75 849.385C799.08 849.925 798.215 850.195 797.155 850.195C796.105 850.195 795.245 849.925 794.575 849.385C793.905 848.835 793.57 848.08 793.57 847.12C793.57 846.56 793.715 846.06 794.005 845.62C794.295 845.18 794.695 844.83 795.205 844.57C794.345 844.03 793.915 843.265 793.915 842.275C793.915 841.325 794.23 840.595 794.86 840.085C795.5 839.565 796.265 839.305 797.155 839.305C798.055 839.305 798.82 839.565 799.45 840.085C800.09 840.595 800.41 841.325 800.41 842.275C800.41 843.265 799.98 844.03 799.12 844.57ZM797.155 840.64C796.625 840.64 796.18 840.78 795.82 841.06C795.47 841.34 795.295 841.755 795.295 842.305C795.295 842.835 795.475 843.25 795.835 843.55C796.195 843.84 796.635 843.985 797.155 843.985C797.675 843.985 798.115 843.84 798.475 843.55C798.835 843.25 799.015 842.835 799.015 842.305C799.015 841.755 798.84 841.34 798.49 841.06C798.14 840.78 797.695 840.64 797.155 840.64ZM797.155 848.86C797.825 848.86 798.36 848.705 798.76 848.395C799.17 848.075 799.375 847.62 799.375 847.03C799.375 846.45 799.17 846.005 798.76 845.695C798.36 845.375 797.825 845.215 797.155 845.215C796.495 845.215 795.96 845.375 795.55 845.695C795.15 846.005 794.95 846.45 794.95 847.03C794.95 847.62 795.15 848.075 795.55 848.395C795.96 848.705 796.495 848.86 797.155 848.86Z" fill="black"/>
<path fill-rule="evenodd" clip-rule="evenodd" d="M808.927 849.495L809.073 848.505L870.261 857.5H1209V858.5H870.188L808.927 849.495Z" fill="#CEE401"/>
<path fill-rule="evenodd" clip-rule="evenodd" d="M86.5 203H526.21L617.356 295.649L616.644 296.351L525.79 204H86.5V203ZM28 404H297.199L333.843 438.637L333.157 439.363L296.801 405H28V404ZM0 681H494.149L573.273 732.581L572.727 733.419L493.851 682H0V681Z" fill="#CEE401"/>
<path d="M596 740.5C596 747.404 590.404 753 583.5 753C576.596 753 571 747.404 571 740.5C571 733.596 576.596 728 583.5 728C590.404 728 596 733.596 596 740.5Z" fill="#CEE401"/>
<path d="M580.27 734.5H586.825V735.745L583 745H581.545L585.34 735.82H580.27V734.5Z" fill="black"/>
<path d="M860 556.5C860 563.404 854.404 569 847.5 569C840.596 569 835 563.404 835 556.5C835 549.596 840.596 544 847.5 544C854.404 544 860 549.596 860 556.5Z" fill="#CEE401"/>
<path d="M848.035 554.13C849.085 554.13 849.95 554.46 850.63 555.12C851.31 555.77 851.65 556.615 851.65 557.655C851.65 558.695 851.31 559.545 850.63 560.205C849.95 560.865 849.085 561.195 848.035 561.195C846.975 561.195 846.105 560.865 845.425 560.205C844.755 559.545 844.42 558.695 844.42 557.655C844.42 556.845 844.63 556.145 845.05 555.555L848.425 550.5H850.015L847.54 554.16C847.76 554.14 847.925 554.13 848.035 554.13ZM846.415 559.26C846.835 559.66 847.375 559.86 848.035 559.86C848.695 559.86 849.23 559.66 849.64 559.26C850.06 558.85 850.27 558.315 850.27 557.655C850.27 556.995 850.06 556.465 849.64 556.065C849.23 555.665 848.695 555.465 848.035 555.465C847.365 555.465 846.825 555.665 846.415 556.065C846.005 556.465 845.8 556.995 845.8 557.655C845.8 558.315 846.005 558.85 846.415 559.26Z" fill="black"/>
<path d="M767 477.5C767 484.404 761.404 490 754.5 490C747.596 490 742 484.404 742 477.5C742 470.596 747.596 465 754.5 465C761.404 465 767 470.596 767 477.5Z" fill="#CEE401"/>
<path d="M755.05 475.595C756.04 475.595 756.875 475.89 757.555 476.48C758.245 477.06 758.59 477.865 758.59 478.895C758.59 479.915 758.24 480.72 757.54 481.31C756.84 481.9 755.99 482.195 754.99 482.195C754.19 482.195 753.475 482.005 752.845 481.625C752.215 481.235 751.775 480.675 751.525 479.945L752.71 479.27C752.85 479.78 753.12 480.17 753.52 480.44C753.92 480.7 754.41 480.83 754.99 480.83C755.65 480.83 756.185 480.66 756.595 480.32C757.005 479.98 757.21 479.505 757.21 478.895C757.21 478.285 757.005 477.81 756.595 477.47C756.185 477.12 755.66 476.945 755.02 476.945H752.05L752.44 471.5H758.185V472.805H753.7L753.52 475.595H755.05Z" fill="black"/>
<path d="M357 443.5C357 450.404 351.404 456 344.5 456C337.596 456 332 450.404 332 443.5C332 436.596 337.596 431 344.5 431C351.404 431 357 436.596 357 443.5Z" fill="#CEE401"/>
<path d="M349.385 444.7V446.005H348.11V448H346.715V446.005H341.36V444.7L345.125 437.5H346.625L342.86 444.7H346.715V441.73H348.11V444.7H349.385Z" fill="black"/>
<path d="M867.283 362.911C867.283 369.803 861.671 375.39 854.749 375.39C847.826 375.39 842.214 369.803 842.214 362.911C842.214 356.019 847.826 350.433 854.749 350.433C861.671 350.433 867.283 356.019 867.283 362.911Z" fill="#CEE401"/>
<path d="M855.979 361.26C856.779 361.41 857.434 361.755 857.944 362.295C858.454 362.835 858.709 363.52 858.709 364.35C858.709 365.37 858.359 366.175 857.659 366.765C856.959 367.355 856.109 367.65 855.109 367.65C854.309 367.65 853.599 367.47 852.979 367.11C852.359 366.74 851.919 366.21 851.659 365.52L852.829 364.83C853.139 365.8 853.899 366.285 855.109 366.285C855.759 366.285 856.289 366.115 856.699 365.775C857.109 365.435 857.314 364.96 857.314 364.35C857.314 363.74 857.109 363.265 856.699 362.925C856.289 362.575 855.759 362.4 855.109 362.4H854.749L854.194 361.545L856.624 358.26H851.959V356.955H858.259V358.185L855.979 361.26Z" fill="black"/>
<path fill-rule="evenodd" clip-rule="evenodd" d="M940.247 310.5H1181.5V311.5H940.522L863.255 357.43L862.745 356.57L940.247 310.5Z" fill="#CEE401"/>
<path d="M638 302.5C638 309.404 632.404 315 625.5 315C618.596 315 613 309.404 613 302.5C613 295.596 618.596 290 625.5 290C632.404 290 638 295.596 638 302.5Z" fill="#CEE401"/>
<path fill-rule="evenodd" clip-rule="evenodd" d="M820.394 419.5H1182V420.5H820.786L765.339 471.787L764.66 471.053L820.394 419.5ZM857.843 560.586L858.459 559.799L907.903 598.499L1134 597L1134 598L907.561 599.501L857.843 560.586Z" fill="#CEE401"/>
<path d="M622.54 307V305.86L626.245 302.08C627.235 301.09 627.73 300.24 627.73 299.53C627.73 298.94 627.55 298.48 627.19 298.15C626.83 297.82 626.39 297.655 625.87 297.655C624.88 297.655 624.16 298.125 623.71 299.065L622.54 298.375C622.87 297.695 623.325 297.18 623.905 296.83C624.495 296.48 625.145 296.305 625.855 296.305C626.735 296.305 627.5 296.595 628.15 297.175C628.8 297.755 629.125 298.535 629.125 299.515C629.125 300.575 628.5 301.73 627.25 302.98L624.565 305.65H629.32V307H622.54Z" fill="black"/>
<path d="M706 152.5C706 159.404 700.404 165 693.5 165C686.596 165 681 159.404 681 152.5C681 145.596 686.596 140 693.5 140C700.404 140 706 145.596 706 152.5Z" fill="#CEE401"/>
<path fill-rule="evenodd" clip-rule="evenodd" d="M852.846 43.5H1136V44.5H853.154L700.281 148.414L699.719 147.586L852.846 43.5Z" fill="#CEE401"/>
<path d="M692.97 146.5H694.17V157H692.79V148L690.555 148.66L690.21 147.46L692.97 146.5Z" fill="black"/>
</svg>
