<svg width="36" height="36" viewBox="0 0 36 36" fill="none" xmlns="http://www.w3.org/2000/svg"><path d="M18 35C27.3888 35 35 27.3888 35 18C35 8.61116 27.3888 1 18 1C8.61116 1 1 8.61116 1 18C1 27.3888 8.61116 35 18 35Z" fill="#29B6F6"/><path d="M12.5074 19.2427L14.5244 24.8252C14.5244 24.8252 14.7765 25.3475 15.0465 25.3475C15.3166 25.3475 19.3327 21.1695 19.3327 21.1695L23.7987 12.5434L12.5794 17.8017L12.5074 19.2427Z" fill="#C8DAEA"/><path d="M15.1817 20.6744L14.7945 24.7892C14.7945 24.7892 14.6324 26.0501 15.893 24.7892C17.1535 23.5284 18.3601 22.5561 18.3601 22.5561" fill="#A9C6D8"/><path d="M12.5438 19.4419L8.395 18.0901C8.395 18.0901 7.89916 17.8889 8.05882 17.4328C8.09169 17.3387 8.15799 17.2587 8.35632 17.1211C9.2756 16.4803 25.3713 10.6951 25.3713 10.6951C25.3713 10.6951 25.8258 10.542 26.0938 10.6438C26.1601 10.6643 26.2198 10.7021 26.2667 10.7533C26.3137 10.8044 26.3461 10.8671 26.3609 10.9349C26.3898 11.0547 26.402 11.178 26.3969 11.3012C26.3956 11.4077 26.3827 11.5064 26.3729 11.6613C26.2749 13.243 23.3413 25.0478 23.3413 25.0478C23.3413 25.0478 23.1657 25.7385 22.5369 25.7622C22.3823 25.7672 22.2284 25.741 22.0842 25.6852C21.9399 25.6294 21.8084 25.5452 21.6975 25.4375C20.4634 24.376 16.1981 21.5095 15.2556 20.8791C15.2344 20.8646 15.2165 20.8457 15.2031 20.8237C15.1898 20.8017 15.1813 20.7771 15.1783 20.7516C15.1651 20.6852 15.2374 20.6028 15.2374 20.6028C15.2374 20.6028 22.6644 14.0012 22.862 13.3081C22.8773 13.2545 22.8195 13.228 22.7419 13.2515C22.2486 13.433 13.6973 18.8331 12.7535 19.4291C12.6856 19.4497 12.6138 19.4541 12.5438 19.4419V19.4419Z" fill="white"/></svg>