<svg width="36" height="36" viewBox="0 0 36 36" fill="none" xmlns="http://www.w3.org/2000/svg"><path d="M15.929 28.4446C15.929 28.4446 12.5913 32.6067 11.5515 33.6905C11.2115 34.0418 10.8389 34.0092 10.8446 33.3122C10.8446 32.8547 10.8715 27.6229 10.8715 27.6229C4.3364 25.7501 4.72173 18.7064 4.79256 15.0202C4.8634 11.3355 5.53773 8.31515 7.52815 6.28224C12.1139 1.97982 25.058 2.94174 28.356 6.0414C32.5153 9.7304 30.9655 20.2052 30.9612 20.0593C30.1325 26.9642 25.2492 27.4019 24.3496 27.7008C23.9657 27.8269 20.4028 28.7435 15.929 28.4446V28.4446Z" fill="white"/><path d="M33.2647 20.6855C34.2791 12.1472 32.7774 6.75682 30.0687 4.31874L30.0701 4.31591C25.7082 0.165075 10.9451 -0.473842 5.7049 4.50432C3.35465 6.93532 2.52731 10.4997 2.43665 14.914C2.3474 19.3297 2.23831 27.6031 9.9464 29.8471H9.95348L9.94781 33.2726C9.94781 33.2726 9.8954 34.6609 10.7808 34.94C11.7895 35.2672 12.2442 34.6382 15.4091 30.8557C20.6861 31.3133 24.735 30.265 25.1968 30.1134C26.2621 29.7536 32.2901 28.956 33.2647 20.6855ZM15.929 28.4446C15.929 28.4446 12.5913 32.6067 11.5515 33.6905C11.2115 34.0418 10.8389 34.0092 10.8446 33.3122C10.8446 32.8547 10.8715 27.6229 10.8715 27.6229C4.3364 25.7501 4.72173 18.7064 4.79256 15.0202C4.8634 11.3355 5.53773 8.31516 7.52815 6.28224C12.1139 1.97983 25.058 2.94174 28.356 6.04141C32.5153 9.73041 30.9655 20.2052 30.9612 20.0593C30.1325 26.9642 25.2492 27.4019 24.3496 27.7008C23.9657 27.8269 20.4028 28.7435 15.929 28.4446Z" fill="#7E57C2"/><path d="M17.4618 1.00657C14.9699 1.01507 8.99015 1.38199 5.7049 4.50432C3.35465 6.93532 2.52731 10.4997 2.43665 14.914C2.3474 19.3297 2.23831 27.6031 9.9464 29.8471H9.95348L9.94781 33.2726C9.94781 33.2726 9.8954 34.6609 10.7808 34.94C10.8913 34.9754 10.9976 34.9967 11.0996 35.0037H11.2582C11.8674 34.9612 12.1054 34.804 15.4091 30.8557C16.1174 30.9167 16.8045 30.9521 17.4618 30.9648V28.5027C16.966 28.4984 16.4546 28.48 15.929 28.4446C15.929 28.4446 12.5913 32.6067 11.5515 33.6905C11.2016 34.0532 10.846 33.9908 10.8446 33.3321C10.8446 33.325 10.8446 33.3193 10.8446 33.3122C10.8446 33.1706 10.8729 27.2447 10.8715 27.6229C5.17648 25.9909 4.68206 20.7535 4.79256 15.0202C4.8634 11.3355 5.53773 8.31516 7.52815 6.28224C10.0937 3.87391 14.195 3.53532 17.4618 3.40074V1.00657Z" fill="#7E57C2"/><path d="M17.7763 7.09117C17.2309 7.09117 17.2309 7.94117 17.7763 7.94825C22.0079 7.98083 25.4929 10.9303 25.5311 16.3406C25.5311 16.9115 26.367 16.9044 26.3599 16.3335H26.3585C26.3131 10.5039 22.508 7.12375 17.7763 7.09117V7.09117Z" fill="#7E57C2"/><path d="M23.3424 15.4438C23.3296 16.0077 24.1641 16.0346 24.1711 15.4637C24.2406 12.2493 22.2572 9.60008 18.5356 9.32242C17.9902 9.28275 17.9336 10.1398 18.4776 10.1795C21.7061 10.4246 23.4076 12.6289 23.3424 15.4438V15.4438ZM22.4499 19.1003C21.7501 18.6951 21.0375 18.9472 20.7428 19.3453L20.1266 20.1429C19.8121 20.5481 19.2284 20.4943 19.2284 20.4943C14.9586 19.3652 13.8167 14.8956 13.8167 14.8956C13.8167 14.8956 13.7643 14.2921 14.1567 13.9662L14.9274 13.3287C15.3127 13.0227 15.5564 12.2861 15.164 11.5622C14.1681 9.77008 12.9384 8.37325 13.0517 8.51492C12.6749 8.04317 12.1082 7.93692 11.5189 8.25567H11.5061C10.2807 8.9725 8.93915 10.3141 9.3684 11.6953C9.44631 11.837 11.2866 17.6609 15.7363 21.3018C17.7522 22.9607 20.9426 24.6607 22.2969 25.0517L22.3082 25.0715C23.6427 25.5163 24.9404 24.1223 25.6331 22.8601V22.8502C25.9406 22.2396 25.8386 21.6616 25.3895 21.2833C24.5947 20.5084 23.3934 19.6513 22.4499 19.1003V19.1003Z" fill="#7E57C2"/><path d="M19.1179 12.4844C20.4793 12.5638 21.1395 13.2749 21.2103 14.7355C21.2358 15.3064 22.0646 15.2668 22.0376 14.6958C21.9484 12.789 20.9539 11.7265 19.1618 11.6273C18.6164 11.5948 18.5668 12.4518 19.1179 12.4844Z" fill="#7E57C2"/><path d="M17.7763 7.09117C17.2309 7.09117 17.2309 7.94117 17.7763 7.94825C20.0005 7.96525 22.0178 8.78833 23.4373 10.3495L24.0309 9.75592C22.4683 8.04033 20.2484 7.10817 17.7763 7.09117V7.09117ZM18.4988 9.321C17.9874 9.321 17.9449 10.1398 18.4761 10.1795C20.0274 10.2971 21.2273 10.8666 22.0461 11.7407L22.6411 11.1457C21.6906 10.1285 20.3107 9.45558 18.5342 9.32242C18.5229 9.321 18.5116 9.321 18.4988 9.321V9.321ZM12.1805 8.07292C11.9694 8.07292 11.7456 8.13242 11.5189 8.25567H11.5061C10.2807 8.9725 8.93915 10.3141 9.3684 11.6953C9.44348 11.8398 10.9735 16.4086 14.0618 19.7264L15.6031 18.1851C14.2545 16.6112 13.8167 14.8956 13.8167 14.8956C13.8167 14.8956 13.7643 14.2921 14.1567 13.9662L14.9274 13.3288C15.3127 13.0228 15.5564 12.2861 15.164 11.5622C14.1681 9.77008 12.9384 8.37325 13.0517 8.51492C12.8194 8.22592 12.5162 8.07292 12.1805 8.07292V8.07292ZM19.1335 11.6259C18.6164 11.6259 18.5781 12.4518 19.1193 12.483C19.8149 12.5241 20.3277 12.7295 20.672 13.1163L21.2712 12.517C20.7867 11.9801 20.0798 11.6769 19.1646 11.6273C19.1533 11.6273 19.1434 11.6259 19.1335 11.6259V11.6259Z" fill="#7E57C2"/></svg>