<svg width="0" height="0" class="hidden">
  <symbol xmlns="http://www.w3.org/2000/svg" viewBox="0 0 72 32" id="partners-section-1">
    <g clip-path="url(#clip0_2_2)">
      <path d="M36 32L0 0L72 0L36 32Z"></path>
    </g>
    <defs>
      <clipPath id="clip0_2_2">
        <rect width="72" height="32"></rect>
      </clipPath>
    </defs>
  </symbol>
  <symbol xmlns="http://www.w3.org/2000/svg" viewBox="0 0 24 24" id="close">
    <path d="M3.3 19.25a1.025 1.025 0 101.45 1.45L12 13.45l7.25 7.25a1.025 1.025 0 101.45-1.45L13.45 12l7.25-7.25a1.025 1.025 0 00-1.45-1.45L12 10.55 4.75 3.3A1.025 1.025 0 103.3 4.75L10.55 12 3.3 19.25z"></path>
  </symbol>
  <symbol xmlns="http://www.w3.org/2000/svg" viewBox="0 0 48 48" id="gift">
    <path d="M43.9898 13H35.6298C35.8498 12.38 35.9898 11.7 35.9898 11C35.9898 7.68 33.3098 5 29.9898 5C27.8898 5 26.0698 6.08 24.9898 7.7L23.9898 9.04L22.9898 7.68C21.9098 6.08 20.0898 5 17.9898 5C14.6698 5 11.9898 7.68 11.9898 11C11.9898 11.7 12.1298 12.38 12.3498 13H4.00977V43H43.9898V13ZM29.9898 9C31.0898 9 31.9898 9.9 31.9898 11C31.9898 12.1 31.0898 13 29.9898 13C28.8898 13 27.9898 12.1 27.9898 11C27.9898 9.9 28.8898 9 29.9898 9ZM17.9898 9C19.0898 9 19.9898 9.9 19.9898 11C19.9898 12.1 19.0898 13 17.9898 13C16.8898 13 15.9898 12.1 15.9898 11C15.9898 9.9 16.8898 9 17.9898 9ZM39.9898 39H7.98977V35H39.9898V39ZM39.9898 29H7.98977V17H18.1498L13.9898 22.66L17.2298 25L23.9898 15.8L30.7498 25L33.9898 22.66L29.8298 17H39.9898V29Z"></path>
  </symbol>
</svg>